<?xml version="1.0" encoding="UTF-8"?>
<svg width="256px" height="70px" viewBox="0 0 256 70" version="1.1" xmlns="http://www.w3.org/2000/svg" xmlns:xlink="http://www.w3.org/1999/xlink">
    <!-- Generator: Sketch 43.1 (39012) - http://www.bohemiancoding.com/sketch -->
    <title>mammoth logo</title>
    <desc>Created with Sketch.</desc>
    <defs></defs>
    <g id="styleguide-assets" stroke="none" stroke-width="1" fill="none" fill-rule="evenodd">
        <g id="modalsingup-informationok" transform="translate(-255.000000, -79.000000)">
            <g id="mammoth-logo" transform="translate(255.000000, 79.000000)">
                <path d="M0.217300813,37.9748571 L6.7363252,37.9748571 L6.7363252,22.5709714 C6.7363252,21.8221714 6.84497561,21.0733714 7.11660163,20.4315429 C7.71417886,18.6130286 9.39826016,16.6875429 11.8972195,16.6875429 C14.9937561,16.6875429 16.4605366,19.2548571 16.4605366,22.8918857 L16.4605366,37.9748571 L22.979561,37.9748571 L22.979561,22.3570286 C22.979561,21.6082286 23.1425366,20.8059429 23.3055122,20.1641143 C24.0117398,18.2921143 25.6958211,16.6875429 27.9774797,16.6875429 C31.1826667,16.6875429 32.7037724,19.2548571 32.7037724,23.5872 L32.7037724,37.9748571 L39.2227967,37.9748571 L39.2227967,22.6244571 C39.2227967,14.2806857 34.7681301,11.3389714 30.3677886,11.3389714 C28.1947805,11.3389714 26.5106992,11.8738286 25.0439187,12.8900571 C23.794439,13.6388571 22.707935,14.7085714 21.7844065,16.1526857 L21.6757561,16.1526857 C20.5349268,13.2644571 17.8186667,11.3389714 14.3418537,11.3389714 C9.88718699,11.3389714 7.49687805,13.7458286 6.19307317,15.7782857 L6.03009756,15.7782857 L5.75847154,11.9273143 L0,11.9273143 C0.16297561,14.1737143 0.217300813,16.6875429 0.217300813,19.6827429 L0.217300813,37.9748571 Z M69.8783329,37.9748571 L63.8482353,37.9748571 L63.4136337,35.0866286 L63.2506581,35.0866286 C61.620902,37.1190857 58.8503166,38.5632 55.4278288,38.5632 C50.1039589,38.5632 47.1160727,34.7657143 47.1160727,30.8077714 C47.1160727,24.2290286 53.0375199,20.9129143 62.8160565,20.9664 L62.8160565,20.5385143 C62.8160565,18.8269714 62.1098288,15.9922286 57.4378614,15.9922286 C54.8302516,15.9922286 52.1139914,16.7945143 50.3212597,17.9177143 L49.0174549,13.6388571 C50.9731622,12.4621714 54.39565,11.3389714 58.5786906,11.3389714 C67.0534223,11.3389714 69.4980565,16.6340571 69.4980565,22.3035429 L69.4980565,31.7170286 C69.4980565,34.0704 69.6067069,36.3702857 69.8783329,37.9748571 Z M62.9790321,28.8288 L62.9790321,25.2452571 C58.2527394,25.1382857 53.7437475,26.1545143 53.7437475,30.1124571 C53.7437475,32.6797714 55.4278288,33.8564571 57.5465118,33.8564571 C60.2084467,33.8564571 62.164154,32.1449143 62.7617313,30.2729143 C62.9247069,29.7915429 62.9790321,29.2566857 62.9790321,28.8288 Z M79.2383894,37.9748571 L85.7574138,37.9748571 L85.7574138,22.5709714 C85.7574138,21.8221714 85.8660642,21.0733714 86.1376902,20.4315429 C86.7352674,18.6130286 88.4193487,16.6875429 90.9183081,16.6875429 C94.0148447,16.6875429 95.4816252,19.2548571 95.4816252,22.8918857 L95.4816252,37.9748571 L102.00065,37.9748571 L102.00065,22.3570286 C102.00065,21.6082286 102.163625,20.8059429 102.326601,20.1641143 C103.032828,18.2921143 104.71691,16.6875429 106.998568,16.6875429 C110.203755,16.6875429 111.724861,19.2548571 111.724861,23.5872 L111.724861,37.9748571 L118.243885,37.9748571 L118.243885,22.6244571 C118.243885,14.2806857 113.789219,11.3389714 109.388877,11.3389714 C107.215869,11.3389714 105.531788,11.8738286 104.065007,12.8900571 C102.815528,13.6388571 101.729024,14.7085714 100.805495,16.1526857 L100.696845,16.1526857 C99.5560154,13.2644571 96.8397553,11.3389714 93.3629422,11.3389714 C88.9082756,11.3389714 86.5179666,13.7458286 85.2141618,15.7782857 L85.0511861,15.7782857 L84.7795601,11.9273143 L79.0210886,11.9273143 C79.1840642,14.1737143 79.2383894,16.6875429 79.2383894,19.6827429 L79.2383894,37.9748571 Z M127.984218,37.9748571 L134.503243,37.9748571 L134.503243,22.5709714 C134.503243,21.8221714 134.611893,21.0733714 134.883519,20.4315429 C135.481096,18.6130286 137.165178,16.6875429 139.664137,16.6875429 C142.760674,16.6875429 144.227454,19.2548571 144.227454,22.8918857 L144.227454,37.9748571 L150.746478,37.9748571 L150.746478,22.3570286 C150.746478,21.6082286 150.909454,20.8059429 151.07243,20.1641143 C151.778657,18.2921143 153.462739,16.6875429 155.744397,16.6875429 C158.949584,16.6875429 160.47069,19.2548571 160.47069,23.5872 L160.47069,37.9748571 L166.989714,37.9748571 L166.989714,22.6244571 C166.989714,14.2806857 162.535048,11.3389714 158.134706,11.3389714 C155.961698,11.3389714 154.277617,11.8738286 152.810836,12.8900571 C151.561356,13.6388571 150.474852,14.7085714 149.551324,16.1526857 L149.442674,16.1526857 C148.301844,13.2644571 145.585584,11.3389714 142.108771,11.3389714 C137.654104,11.3389714 135.263795,13.7458286 133.959991,15.7782857 L133.797015,15.7782857 L133.525389,11.9273143 L127.766917,11.9273143 C127.929893,14.1737143 127.984218,16.6875429 127.984218,19.6827429 L127.984218,37.9748571 Z M188.735917,11.3389714 C196.613071,11.3389714 201.882616,16.7945143 201.882616,24.7104 C201.882616,34.2843429 195.037641,38.5632 188.301315,38.5632 C180.804437,38.5632 175.045966,33.4820571 175.045966,25.1382857 C175.045966,16.5805714 180.750112,11.3389714 188.735917,11.3389714 Z M188.572941,16.1526857 C183.846649,16.1526857 181.945267,20.6454857 181.945267,24.9778286 C181.945267,30.0054857 184.444226,33.8029714 188.518616,33.8029714 C192.32138,33.8029714 194.983315,30.1124571 194.983315,24.8708571 C194.983315,20.8059429 193.136258,16.1526857 188.572941,16.1526857 Z M211.188347,6.04388571 L211.188347,11.9273143 L207.385583,11.9273143 L207.385583,16.848 L211.188347,16.848 L211.188347,29.0962286 C211.188347,32.5193143 211.84025,34.8726857 213.252705,36.3702857 C214.502185,37.7074286 216.566543,38.5097143 219.011177,38.5097143 C221.12986,38.5097143 222.868266,38.2422857 223.84612,37.8678857 L223.737469,32.8402286 C223.139892,33.0006857 222.270689,33.1611429 221.12986,33.1611429 C218.576575,33.1611429 217.707372,31.5030857 217.707372,28.3474286 L217.707372,16.848 L224.063421,16.848 L224.063421,11.9273143 L217.707372,11.9273143 L217.707372,4.4928 L211.188347,6.04388571 Z M231.793721,37.9748571 L238.530046,37.9748571 L238.530046,22.4105143 C238.530046,21.6617143 238.584371,20.9664 238.801672,20.4315429 C239.5079,18.4525714 241.354957,16.7410286 243.962567,16.7410286 C247.65668,16.7410286 249.069136,19.5757714 249.069136,23.3732571 L249.069136,37.9748571 L255.751136,37.9748571 L255.751136,22.6244571 C255.751136,14.2806857 251.024843,11.3389714 246.515851,11.3389714 C244.83177,11.3389714 243.256339,11.7668571 241.952534,12.5156571 C240.540079,13.2644571 239.453575,14.2806857 238.638697,15.5108571 L238.530046,15.5108571 L238.530046,0 L231.793721,0 L231.793721,37.9748571 Z" id="mammoth" fill="#56C28C"></path>
                <path d="M31.5654122,69.3352594 L35.9137514,57.0180754 L36.0257258,56.9247634 L37.5933674,56.719477 L37.7053418,56.7941266 L42.1283306,69.3352594 L42.0723434,69.4285714 L40.5793514,69.4285714 L40.467377,69.3352594 L39.440945,66.330613 L34.2341354,66.330613 L33.2263658,69.3352594 L33.1330538,69.4285714 L31.6213994,69.4285714 L31.5654122,69.3352594 Z M34.7193578,64.9122706 L38.974385,64.9122706 L37.0334954,59.1642514 L36.8468714,58.3617682 L36.6602474,59.1642514 L34.7193578,64.9122706 Z M56.8227089,69.3352594 L56.9160209,69.4285714 L58.2970385,69.4285714 L58.3903505,69.3352594 L58.3903505,59.2575634 L58.8755729,60.1533586 L64.9595153,69.3352594 L65.1088145,69.4285714 L66.4338449,69.4285714 L66.5271569,69.3352594 L66.5271569,56.7941266 L66.4338449,56.719477 L65.0528273,56.906101 L64.9595153,57.0180754 L64.9595153,66.797173 L64.4742929,65.9013778 L58.4276753,56.7941266 L58.2970385,56.719477 L56.9160209,56.906101 L56.8227089,57.0180754 L56.8227089,69.3352594 Z M81.2401976,69.3352594 L85.5885368,57.0180754 L85.7005112,56.9247634 L87.2681528,56.719477 L87.3801272,56.7941266 L91.803116,69.3352594 L91.7471288,69.4285714 L90.2541368,69.4285714 L90.1421624,69.3352594 L89.1157304,66.330613 L83.9089208,66.330613 L82.9011512,69.3352594 L82.8078392,69.4285714 L81.2961848,69.4285714 L81.2401976,69.3352594 Z M84.3941432,64.9122706 L88.6491704,64.9122706 L86.7082808,59.1642514 L86.5216568,58.3617682 L86.3350328,59.1642514 L84.3941432,64.9122706 Z M106.497494,69.3352594 L106.590806,69.4285714 L113.066659,69.4285714 L113.178634,69.3352594 L113.514557,68.0288914 L113.439907,67.9355794 L108.065136,67.9355794 L108.065136,56.7941266 L107.971824,56.719477 L106.590806,56.906101 L106.497494,57.0180754 L106.497494,69.3352594 Z M130.355111,69.3352594 L130.448423,69.4285714 L131.829441,69.4285714 L131.922753,69.3352594 L131.922753,63.904501 L135.729882,56.7941266 L135.617908,56.719477 L133.919629,56.9434258 L133.826317,57.0554002 L131.456193,61.758325 L131.138932,62.4861586 L130.840333,61.758325 L128.339572,56.7941266 L128.227597,56.719477 L126.659956,56.9247634 L126.566644,57.0554002 L130.355111,63.904501 L130.355111,69.3352594 Z M152.533112,69.3352594 L152.626424,69.4285714 L154.007441,69.4285714 L154.100753,69.3352594 L154.100753,58.3244434 L157.441323,58.3244434 L157.553297,58.2311314 L157.889221,56.9247634 L157.814571,56.8314514 L149.061905,56.8314514 L148.968593,56.9247634 L148.968593,58.2311314 L149.061905,58.3244434 L152.533112,58.3244434 L152.533112,69.3352594 Z M172.415637,69.3352594 L172.508949,69.4285714 L173.889967,69.4285714 L173.983279,69.3352594 L173.983279,56.7941266 L173.889967,56.719477 L172.508949,56.906101 L172.415637,57.0180754 L172.415637,69.3352594 Z M189.797401,65.0802322 C189.797401,68.0848786 191.756953,69.6525202 194.68695,69.6525202 C196.982425,69.6525202 198.624716,68.7380626 199.240576,66.9651346 L199.184588,66.8531602 L197.971532,66.3866002 L197.840896,66.423925 C197.318348,67.543669 196.217267,68.1595282 194.68695,68.1595282 C192.783385,68.1595282 191.402368,67.1330962 191.402368,64.9122706 L191.402368,61.4037394 C191.402368,59.238901 192.783385,58.1378194 194.68695,58.1378194 C196.030643,58.1378194 197.113062,58.7910034 197.616947,59.8174354 L197.747584,59.8547602 L198.997964,59.332213 L199.053952,59.2202386 C198.382105,57.5779474 196.739814,56.6448274 194.68695,56.6448274 C191.756953,56.6448274 189.797401,58.2497938 189.797401,61.2731026 L189.797401,65.0802322 Z M213.841642,68.5327762 C214.812087,69.2979346 216.361066,69.6525202 217.238199,69.6525202 C219.123101,69.6525202 221.343927,68.7940498 221.343927,65.9946898 C221.343927,61.6836754 215.763869,62.971381 215.763869,60.172021 C215.763869,58.9962898 216.47304,58.1378194 217.966032,58.1378194 C218.936477,58.1378194 219.73896,58.4177554 220.261508,58.8096658 L220.410807,58.7910034 L221.119978,57.7085842 L221.101316,57.5779474 C220.933354,57.4099858 219.757623,56.6448274 217.891383,56.6448274 C215.875844,56.6448274 214.158903,57.9885202 214.158903,60.2280082 C214.158903,64.3337362 219.73896,63.0087058 219.73896,66.0133522 C219.73896,67.5809938 218.619216,68.1595282 217.294186,68.1595282 C216.47304,68.1595282 215.278647,67.8049426 214.737437,67.3383826 L214.569476,67.357045 L213.804317,68.4021394 L213.841642,68.5327762 Z" id="A-N-A-L-Y-T-I-C-S" fill="#333333"></path>
            </g>
        </g>
    </g>
</svg>